D:\school\WTK\thesis\model\3dpredictsim\Results\PredSim_adaptations\Pog_s1_tmt_bCst_d00_k200_ig24_act_GRF.mot
nRows=20
nColumns=19

name D:\school\WTK\thesis\model\3dpredictsim\Results\PredSim_adaptations\Pog_s1_tmt_bCst_d00_k200_ig24_act_GRF.mot
datacolumns 19
datarows 20
range 0.6277079556 0.8662369787
endheader
time 	ground_force_vx	ground_force_vy	ground_force_vz	ground_force_px	ground_force_py	ground_force_pz	1_ground_force_vx	1_ground_force_vy	1_ground_force_vz	1_ground_force_px	1_ground_force_py	1_ground_force_pz	ground_torque_x	ground_torque_y	ground_torque_z	1_ground_torque_x	1_ground_torque_y	1_ground_torque_z
        0.6277079556	       44.9963656642	      271.8653353186	       17.0253022069	        0.4091064520	        0.0000000000	        0.0201571931	      -51.0072917851	       89.0139304167	      -69.3432928078	        0.9573345079	        0.0000000000	       -0.0478564288	        0.0000000000	        0.0000000000	        0.0000000000	        0.0000000000	        0.0000000000	        0.0000000000	
        0.6402621147	       31.5219275272	      235.0128426728	       23.4269979874	        0.4143489186	        0.0000000000	        0.0180514247	      -30.3343934126	      272.7526475520	      -34.4581778108	        0.9605285828	        0.0000000000	       -0.0448047914	        0.0000000000	        0.0000000000	        0.0000000000	        0.0000000000	        0.0000000000	        0.0000000000	
        0.6528162738	       28.5377119620	      201.3500561263	       21.1333075335	        0.4144306506	        0.0000000000	        0.0179338014	      -40.7521093304	      494.0015243743	        1.1417513988	        0.9636988279	        0.0000000000	       -0.0442971304	        0.0000000000	        0.0000000000	        0.0000000000	        0.0000000000	        0.0000000000	        0.0000000000	
        0.6653704329	       18.9781427337	      153.1980287046	       22.6232248708	        0.4143869146	        0.0000000000	        0.0181606236	      -89.3906330775	      746.6185868814	       14.4463202230	        0.9741676692	        0.0000000000	       -0.0464597798	        0.0000000000	        0.0000000000	        0.0000000000	        0.0000000000	        0.0000000000	        0.0000000000	
        0.6779245920	        2.8696386803	       78.4076414635	       22.8663093107	        0.4138742554	        0.0000000000	        0.0191698828	     -127.7514294499	      909.9359627141	       15.6761490282	        0.9825076454	        0.0000000000	       -0.0482911075	        0.0000000000	        0.0000000000	        0.0000000000	        0.0000000000	        0.0000000000	        0.0000000000	
        0.6904787511	      -13.7330511215	       16.7523373820	        6.5747873233	        0.4079090427	        0.0000000000	        0.0188489983	     -131.1781400899	      934.4857984791	       17.2750701939	        0.9880055229	        0.0000000000	       -0.0492838976	        0.0000000000	        0.0000000000	        0.0000000000	        0.0000000000	        0.0000000000	        0.0000000000	
        0.7030329102	      -19.8426293153	       15.9078900600	       -0.0686789337	        0.4151342730	        0.0000000000	        0.0153400660	     -117.4827414939	      888.3889546628	       17.2262753198	        0.9922473395	        0.0000000000	       -0.0498006385	        0.0000000000	        0.0000000000	        0.0000000000	        0.0000000000	        0.0000000000	        0.0000000000	
        0.7155870693	      -25.6788888408	       17.7659098341	       -0.8475920578	        0.4311341773	        0.0000000000	        0.0159543401	     -103.0864869757	      827.7804660787	       17.1821899619	        0.9967975879	        0.0000000000	       -0.0499271047	        0.0000000000	        0.0000000000	        0.0000000000	        0.0000000000	        0.0000000000	        0.0000000000	
        0.7281412284	      -26.3143788315	       16.1896672507	       -1.6375816109	        0.4519455553	        0.0000000000	        0.0171149383	      -92.0063583690	      777.6758227107	       17.5219083490	        1.0025861732	        0.0000000000	       -0.0497116530	        0.0000000000	        0.0000000000	        0.0000000000	        0.0000000000	        0.0000000000	        0.0000000000	
        0.7406953876	      -23.2690763500	       13.0913256885	       -1.9301649982	        0.4766305415	        0.0000000000	        0.0189772902	      -84.2634925163	      745.8988611432	       17.9392842809	        1.0100233196	        0.0000000000	       -0.0491614141	        0.0000000000	        0.0000000000	        0.0000000000	        0.0000000000	        0.0000000000	        0.0000000000	
        0.7532495467	      -17.4878433111	        9.2007431469	       -1.6908913867	        0.0000000000	        0.0000000000	        0.0000000000	      -76.8354097741	      719.0434590984	       18.1086947515	        1.0178413282	        0.0000000000	       -0.0484317765	        0.0000000000	        0.0000000000	        0.0000000000	        0.0000000000	        0.0000000000	        0.0000000000	
        0.7658037058	      -11.7332419935	        5.9050469530	       -1.1683486403	        0.0000000000	        0.0000000000	        0.0000000000	      -69.9067805933	      693.7725396892	       18.4393415081	        1.0256683801	        0.0000000000	       -0.0477200527	        0.0000000000	        0.0000000000	        0.0000000000	        0.0000000000	        0.0000000000	        0.0000000000	
        0.7783578649	       -7.6736644623	        3.7384072315	       -0.7616365144	        0.0000000000	        0.0000000000	        0.0000000000	      -63.0718609372	      672.3915805790	       18.5525937832	        1.0334199741	        0.0000000000	       -0.0470473063	        0.0000000000	        0.0000000000	        0.0000000000	        0.0000000000	        0.0000000000	        0.0000000000	
        0.7909120240	       -5.3291139397	        2.5337679716	       -0.5179476763	        0.0000000000	        0.0000000000	        0.0000000000	      -56.6531098155	      655.1087600563	       18.8493300564	        1.0413510751	        0.0000000000	       -0.0463477407	        0.0000000000	        0.0000000000	        0.0000000000	        0.0000000000	        0.0000000000	        0.0000000000	
        0.8034661831	       -3.7906857452	        1.7678850642	       -0.3597870031	        0.0000000000	        0.0000000000	        0.0000000000	      -51.1463110059	      640.4645514521	       18.9020027245	        1.0495529895	        0.0000000000	       -0.0455767270	        0.0000000000	        0.0000000000	        0.0000000000	        0.0000000000	        0.0000000000	        0.0000000000	
        0.8160203422	       -2.5720662933	        1.1793007476	       -0.2367955782	        0.0000000000	        0.0000000000	        0.0000000000	      -46.5287674645	      628.3771540966	       18.1433615442	        1.0578807050	        0.0000000000	       -0.0447493211	        0.0000000000	        0.0000000000	        0.0000000000	        0.0000000000	        0.0000000000	        0.0000000000	
        0.8285745013	       -1.6914114300	        0.7634100054	       -0.1486715918	        0.0000000000	        0.0000000000	        0.0000000000	      -42.3845047540	      618.4767804132	       16.7672052771	        1.0660408419	        0.0000000000	       -0.0438973897	        0.0000000000	        0.0000000000	        0.0000000000	        0.0000000000	        0.0000000000	        0.0000000000	
        0.8411286605	       -1.1465055384	        0.5091181864	       -0.0952493084	        0.0000000000	        0.0000000000	        0.0000000000	      -38.3599265883	      609.7879838191	       15.6720614233	        1.0738903741	        0.0000000000	       -0.0430399421	        0.0000000000	        0.0000000000	        0.0000000000	        0.0000000000	        0.0000000000	        0.0000000000	
        0.8536828196	       -0.8386314632	        0.3659295513	       -0.0659948716	        0.0000000000	        0.0000000000	        0.0000000000	      -34.3350861355	      601.5476357776	       15.1301713459	        1.0814513053	        0.0000000000	       -0.0421805852	        0.0000000000	        0.0000000000	        0.0000000000	        0.0000000000	        0.0000000000	        0.0000000000	
        0.8662369787	       -0.6731320136	        0.2884802723	       -0.0504645313	        0.0000000000	        0.0000000000	        0.0000000000	      -30.4979185552	      593.5280725052	       14.9366485444	        1.0887347779	        0.0000000000	       -0.0413212639	        0.0000000000	        0.0000000000	        0.0000000000	        0.0000000000	        0.0000000000	        0.0000000000	
